<svg fill="none" height="1036" viewBox="0 0 3234 1036" width="3234" xmlns="http://www.w3.org/2000/svg"><g stroke="#000"><path d="m233.5 1032h-226.5v-1029.99945h226.5v247.50045h187.5v69.5h205v402h-213.5v67.5h-179z"/><circle cx="575" cy="566.001" r="2"/><circle cx="526" cy="566.001" r="2"/><circle cx="476" cy="566.001" r="2"/><circle cx="575" cy="614.001" r="2"/><circle cx="526" cy="614.001" r="2"/><circle cx="476" cy="614.001" r="2"/><path d="m478.5 566.501h45"/><path d="m528.5 566.501h45"/><path d="m477.5 614.501h45"/><path d="m527.5 614.501h45"/><path d="m574.5 568.501v43"/><path d="m475.5 568.501v43"/><path d="m515.5 587.501 60.5-11.5m-76.5 21 60.5 10.5"/><path d="m579.5 559.501h-108c-1.105 0-2 .895-2 2v57c0 1.104.895 2 2 2h108c1.105 0 2-.896 2-2v-57c0-1.105-.895-2-2-2z"/><path d="m495.136 586.882-5.652-3.195c-1.333-.753-2.984.21-2.984 1.741v6.88c0 1.589 1.762 2.543 3.093 1.676l5.651-3.686c1.256-.819 1.197-2.678-.108-3.416z"/><circle cx="576" cy="423.001" r="2"/><circle cx="527" cy="423.001" r="2"/><circle cx="477" cy="423.001" r="2"/><circle cx="576" cy="471.001" r="2"/><circle cx="527" cy="471.001" r="2"/><circle cx="477" cy="471.001" r="2"/><path d="m479.5 423.501h45"/><path d="m529.5 423.501h45"/><path d="m478.5 471.501h45"/><path d="m528.5 471.501h45"/><path d="m575.5 425.501v43"/><path d="m476.5 425.501v43"/><path d="m516.5 444.501 60.5-11.5m-76.5 21 60.5 10.5"/><path d="m580.5 416.501h-108c-1.105 0-2 .895-2 2v57c0 1.104.895 2 2 2h108c1.105 0 2-.896 2-2v-57c0-1.105-.895-2-2-2z"/><path d="m496.136 443.882-5.652-3.195c-1.333-.753-2.984.21-2.984 1.741v6.88c0 1.589 1.762 2.543 3.093 1.676l5.651-3.686c1.256-.819 1.197-2.678-.108-3.416z"/><path d="m7.5 759.001h29.5v28h-29.5z"/><path d="m30 738.501h-16.5v17h16.5z"/><path d="m30 790.501h-16.5v17h16.5z"/><path d="m7.5 841.001h29.5v28h-29.5z"/><path d="m30 820.501h-16.5v17h16.5z"/><path d="m30 872.501h-16.5v17h16.5z"/><path d="m7.5 923.001h29.5v28h-29.5z"/><path d="m30 902.501h-16.5v17h16.5z"/><path d="m30 954.501h-16.5v17h16.5z"/><path d="m6.5 78.0005h29.5v28.0005h-29.5z"/><path d="m29 57.5005h-16.5v17h16.5z"/><path d="m29 109.501h-16.5v17h16.5z"/><path d="m6.5 160.001h29.5v28h-29.5z"/><path d="m29 139.501h-16.5v17h16.5z"/><path d="m29 191.501h-16.5v17h16.5z"/><path d="m6.5 242.001h29.5v28h-29.5z"/><path d="m29 221.501h-16.5v17h16.5z"/><path d="m29 273.501h-16.5v17h16.5z"/><path d="m300.5 681.501h-85.5v28h85.5z"/><path d="m287 663.001c4.447 0 8 3.386 8 7.5s-3.553 7.5-8 7.5-8-3.386-8-7.5 3.553-7.5 8-7.5z"/><path d="m258 663.001c4.447 0 8 3.386 8 7.5s-3.553 7.5-8 7.5-8-3.386-8-7.5 3.553-7.5 8-7.5z"/><path d="m229 663.001c4.447 0 8 3.386 8 7.5s-3.553 7.5-8 7.5-8-3.386-8-7.5 3.553-7.5 8-7.5z"/><path d="m287 713.001c4.447 0 8 3.386 8 7.5s-3.553 7.5-8 7.5-8-3.386-8-7.5 3.553-7.5 8-7.5z"/><path d="m258 713.001c4.447 0 8 3.386 8 7.5s-3.553 7.5-8 7.5-8-3.386-8-7.5 3.553-7.5 8-7.5z"/><path d="m229 713.001c4.447 0 8 3.386 8 7.5s-3.553 7.5-8 7.5-8-3.386-8-7.5 3.553-7.5 8-7.5z"/><path d="m172 681.501h-85.5v28h85.5z"/><path d="m158.5 663.001c4.447 0 8 3.386 8 7.5s-3.553 7.5-8 7.5-8-3.386-8-7.5 3.553-7.5 8-7.5z"/><path d="m129.5 663.001c4.447 0 8 3.386 8 7.5s-3.553 7.5-8 7.5-8-3.386-8-7.5 3.553-7.5 8-7.5z"/><path d="m100.5 663.001c4.447 0 8 3.386 8 7.5s-3.553 7.5-8 7.5c-4.4473 0-8-3.386-8-7.5s3.5527-7.5 8-7.5z"/><path d="m158.5 713.001c4.447 0 8 3.386 8 7.5s-3.553 7.5-8 7.5-8-3.386-8-7.5 3.553-7.5 8-7.5z"/><path d="m129.5 713.001c4.447 0 8 3.386 8 7.5s-3.553 7.5-8 7.5-8-3.386-8-7.5 3.553-7.5 8-7.5z"/><path d="m100.5 713.001c4.447 0 8 3.386 8 7.5s-3.553 7.5-8 7.5c-4.4473 0-8-3.386-8-7.5s3.5527-7.5 8-7.5z"/><path d="m300.5 328.501h-85.5v28h85.5z"/><path d="m287 310.001c4.447 0 8 3.386 8 7.5s-3.553 7.5-8 7.5-8-3.386-8-7.5 3.553-7.5 8-7.5z"/><path d="m258 310.001c4.447 0 8 3.386 8 7.5s-3.553 7.5-8 7.5-8-3.386-8-7.5 3.553-7.5 8-7.5z"/><path d="m229 310.001c4.447 0 8 3.386 8 7.5s-3.553 7.5-8 7.5-8-3.386-8-7.5 3.553-7.5 8-7.5z"/><path d="m287 360.001c4.447 0 8 3.386 8 7.5s-3.553 7.5-8 7.5-8-3.386-8-7.5 3.553-7.5 8-7.5z"/><path d="m258 360.001c4.447 0 8 3.386 8 7.5s-3.553 7.5-8 7.5-8-3.386-8-7.5 3.553-7.5 8-7.5z"/><path d="m229 360.001c4.447 0 8 3.386 8 7.5s-3.553 7.5-8 7.5-8-3.386-8-7.5 3.553-7.5 8-7.5z"/><path d="m172 328.501h-85.5v28h85.5z"/><path d="m158.5 310.001c4.447 0 8 3.386 8 7.5s-3.553 7.5-8 7.5-8-3.386-8-7.5 3.553-7.5 8-7.5z"/><path d="m129.5 310.001c4.447 0 8 3.386 8 7.5s-3.553 7.5-8 7.5-8-3.386-8-7.5 3.553-7.5 8-7.5z"/><path d="m100.5 310.001c4.447 0 8 3.386 8 7.5s-3.553 7.5-8 7.5c-4.4473 0-8-3.386-8-7.5s3.5527-7.5 8-7.5z"/><path d="m158.5 360.001c4.447 0 8 3.386 8 7.5s-3.553 7.5-8 7.5-8-3.386-8-7.5 3.553-7.5 8-7.5z"/><path d="m129.5 360.001c4.447 0 8 3.386 8 7.5s-3.553 7.5-8 7.5-8-3.386-8-7.5 3.553-7.5 8-7.5z"/><path d="m100.5 360.001c4.447 0 8 3.386 8 7.5s-3.553 7.5-8 7.5c-4.4473 0-8-3.386-8-7.5s3.5527-7.5 8-7.5z"/><path d="m178 789.001h-59v102h59z"/><path d="m189.5 791.001c8.041 0 14.5 6.076 14.5 13.5 0 7.423-6.459 13.5-14.5 13.5s-14.5-6.077-14.5-13.5c0-7.424 6.459-13.5 14.5-13.5z"/><path d="m189.5 827.001c8.041 0 14.5 6.076 14.5 13.5 0 7.423-6.459 13.5-14.5 13.5s-14.5-6.077-14.5-13.5c0-7.424 6.459-13.5 14.5-13.5z"/><path d="m189.5 859.001c8.041 0 14.5 6.076 14.5 13.5 0 7.423-6.459 13.5-14.5 13.5s-14.5-6.077-14.5-13.5c0-7.424 6.459-13.5 14.5-13.5z"/><path d="m106.5 791.001c8.041 0 14.5 6.076 14.5 13.5 0 7.423-6.459 13.5-14.5 13.5-8.0412 0-14.5-6.077-14.5-13.5 0-7.424 6.4588-13.5 14.5-13.5z"/><path d="m106.5 827.001c8.041 0 14.5 6.076 14.5 13.5 0 7.423-6.459 13.5-14.5 13.5-8.0412 0-14.5-6.077-14.5-13.5 0-7.424 6.4588-13.5 14.5-13.5z"/><path d="m105.5 862.001c8.041 0 14.5 6.076 14.5 13.5 0 7.423-6.459 13.5-14.5 13.5-8.0412 0-14.5-6.077-14.5-13.5 0-7.424 6.4588-13.5 14.5-13.5z"/><path d="m178 926.501h-59v101.999h59z"/><path d="m189.5 928.501c8.041 0 14.5 6.076 14.5 13.5 0 7.423-6.459 13.5-14.5 13.5s-14.5-6.077-14.5-13.5c0-7.424 6.459-13.5 14.5-13.5z"/><path d="m189.5 964.501c8.041 0 14.5 6.076 14.5 13.5 0 7.423-6.459 13.5-14.5 13.5s-14.5-6.077-14.5-13.5c0-7.424 6.459-13.5 14.5-13.5z"/><path d="m189.5 996.501c8.041 0 14.5 6.079 14.5 13.499s-6.459 13.5-14.5 13.5-14.5-6.08-14.5-13.5 6.459-13.499 14.5-13.499z"/><path d="m106.5 928.501c8.041 0 14.5 6.076 14.5 13.5 0 7.423-6.459 13.5-14.5 13.5-8.0412 0-14.5-6.077-14.5-13.5 0-7.424 6.4588-13.5 14.5-13.5z"/><path d="m106.5 964.501c8.041 0 14.5 6.076 14.5 13.5 0 7.423-6.459 13.5-14.5 13.5-8.0412 0-14.5-6.077-14.5-13.5 0-7.424 6.4588-13.5 14.5-13.5z"/><path d="m105.5 999.501c8.041 0 14.5 6.079 14.5 13.499s-6.459 13.5-14.5 13.5c-8.0412 0-14.5-6.08-14.5-13.5s6.4588-13.499 14.5-13.499z"/><path d="m179 9.50055h-59v102.00045h59z"/><path d="m190.5 11.5005c8.041 0 14.5 6.0761 14.5 13.5 0 7.424-6.459 13.5-14.5 13.5s-14.5-6.076-14.5-13.5c0-7.4239 6.459-13.5 14.5-13.5z"/><path d="m190.5 47.5005c8.041 0 14.5 6.0761 14.5 13.5 0 7.424-6.459 13.5-14.5 13.5s-14.5-6.076-14.5-13.5c0-7.4239 6.459-13.5 14.5-13.5z"/><path d="m190.5 79.5005c8.041 0 14.5 6.0761 14.5 13.5 0 7.4235-6.459 13.5005-14.5 13.5005s-14.5-6.077-14.5-13.5005c0-7.4239 6.459-13.5 14.5-13.5z"/><path d="m107.5 11.5005c8.041 0 14.5 6.0761 14.5 13.5 0 7.424-6.459 13.5-14.5 13.5-8.0412 0-14.5-6.076-14.5-13.5 0-7.4239 6.4588-13.5 14.5-13.5z"/><path d="m107.5 47.5005c8.041 0 14.5 6.0761 14.5 13.5 0 7.424-6.459 13.5-14.5 13.5-8.0412 0-14.5-6.076-14.5-13.5 0-7.4239 6.4588-13.5 14.5-13.5z"/><path d="m106.5 82.5005c8.041 0 14.5 6.0761 14.5 13.5 0 7.4235-6.459 13.5005-14.5 13.5005-8.0412 0-14.5-6.077-14.5-13.5005 0-7.4239 6.4588-13.5 14.5-13.5z"/><path d="m179 147.001h-59v102h59z"/><path d="m190.5 149.001c8.041 0 14.5 6.076 14.5 13.5 0 7.423-6.459 13.5-14.5 13.5s-14.5-6.077-14.5-13.5c0-7.424 6.459-13.5 14.5-13.5z"/><path d="m190.5 185.001c8.041 0 14.5 6.076 14.5 13.5 0 7.423-6.459 13.5-14.5 13.5s-14.5-6.077-14.5-13.5c0-7.424 6.459-13.5 14.5-13.5z"/><path d="m190.5 217.001c8.041 0 14.5 6.076 14.5 13.5 0 7.423-6.459 13.5-14.5 13.5s-14.5-6.077-14.5-13.5c0-7.424 6.459-13.5 14.5-13.5z"/><path d="m107.5 149.001c8.041 0 14.5 6.076 14.5 13.5 0 7.423-6.459 13.5-14.5 13.5-8.0412 0-14.5-6.077-14.5-13.5 0-7.424 6.4588-13.5 14.5-13.5z"/><path d="m107.5 185.001c8.041 0 14.5 6.076 14.5 13.5 0 7.423-6.459 13.5-14.5 13.5-8.0412 0-14.5-6.077-14.5-13.5 0-7.424 6.4588-13.5 14.5-13.5z"/><path d="m106.5 220.001c8.041 0 14.5 6.076 14.5 13.5 0 7.423-6.459 13.5-14.5 13.5-8.0412 0-14.5-6.077-14.5-13.5 0-7.424 6.4588-13.5 14.5-13.5z"/><path d="m152.5 596.745c9.127 0 16.5 7.177 16.5 16 0 8.822-7.373 16-16.5 16s-16.5-7.178-16.5-16c0-8.823 7.373-16 16.5-16z"/><path d="m137 608.501-11.5-11.5 11.5-11.5 12 11.5z"/><path d="m169 640.501-11.5-11.5 11.5-11.5 12 11.5z"/><path d="m148.835 628.402-11.164 11.826-11.826-11.165 11.15-12.326z"/><path d="m179.902 595.496-11.164 11.825-11.826-11.165 11.15-12.325z"/><path d="m68.5 596.745c9.1269 0 16.5 7.177 16.5 16 0 8.822-7.3731 16-16.5 16s-16.5-7.178-16.5-16c0-8.823 7.3731-16 16.5-16z"/><path d="m53 608.501-11.5-11.5 11.5-11.5 12 11.5z"/><path d="m85 640.501-11.5-11.5 11.5-11.5 12 11.5z"/><path d="m64.8353 628.402-11.1648 11.826-11.8257-11.165 11.1505-12.326z"/><path d="m95.9025 595.496-11.1648 11.825-11.8257-11.165 11.1504-12.325z"/><path d="m152.5 530.745c9.127 0 16.5 7.177 16.5 16 0 8.822-7.373 16-16.5 16s-16.5-7.178-16.5-16c0-8.823 7.373-16 16.5-16z"/><path d="m137 542.501-11.5-11.5 11.5-11.5 12 11.5z"/><path d="m169 574.501-11.5-11.5 11.5-11.5 12 11.5z"/><path d="m148.835 562.402-11.164 11.826-11.826-11.165 11.15-12.326z"/><path d="m179.902 529.496-11.164 11.825-11.826-11.165 11.15-12.325z"/><path d="m68.5 530.745c9.1269 0 16.5 7.177 16.5 16 0 8.822-7.3731 16-16.5 16s-16.5-7.178-16.5-16c0-8.823 7.3731-16 16.5-16z"/><path d="m53 542.501-11.5-11.5 11.5-11.5 12 11.5z"/><path d="m85 574.501-11.5-11.5 11.5-11.5 12 11.5z"/><path d="m64.8353 562.402-11.1648 11.826-11.8257-11.165 11.1505-12.326z"/><path d="m95.9025 529.496-11.1648 11.825-11.8257-11.165 11.1504-12.325z"/><path d="m152.5 464.745c9.127 0 16.5 7.177 16.5 16 0 8.822-7.373 16-16.5 16s-16.5-7.178-16.5-16c0-8.823 7.373-16 16.5-16z"/><path d="m137 476.501-11.5-11.5 11.5-11.5 12 11.5z"/><path d="m169 508.501-11.5-11.5 11.5-11.5 12 11.5z"/><path d="m148.835 496.402-11.164 11.826-11.826-11.165 11.15-12.326z"/><path d="m179.902 463.496-11.164 11.825-11.826-11.165 11.15-12.325z"/><path d="m68.5 464.745c9.1269 0 16.5 7.177 16.5 16 0 8.822-7.3731 16-16.5 16s-16.5-7.178-16.5-16c0-8.823 7.3731-16 16.5-16z"/><path d="m53 476.501-11.5-11.5 11.5-11.5 12 11.5z"/><path d="m85 508.501-11.5-11.5 11.5-11.5 12 11.5z"/><path d="m64.8353 496.402-11.1648 11.826-11.8257-11.165 11.1505-12.326z"/><path d="m95.9025 463.496-11.1648 11.825-11.8257-11.165 11.1504-12.325z"/><path d="m152.5 398.745c9.127 0 16.5 7.177 16.5 16 0 8.822-7.373 16-16.5 16s-16.5-7.178-16.5-16c0-8.823 7.373-16 16.5-16z"/><path d="m137 410.501-11.5-11.5 11.5-11.5 12 11.5z"/><path d="m169 442.501-11.5-11.5 11.5-11.5 12 11.5z"/><path d="m148.835 430.402-11.164 11.826-11.826-11.165 11.15-12.326z"/><path d="m179.902 397.496-11.164 11.825-11.826-11.165 11.15-12.325z"/><path d="m68.5 398.745c9.1269 0 16.5 7.177 16.5 16 0 8.822-7.3731 16-16.5 16s-16.5-7.178-16.5-16c0-8.823 7.3731-16 16.5-16z"/><path d="m53 410.501-11.5-11.5 11.5-11.5 12 11.5z"/><path d="m85 442.501-11.5-11.5 11.5-11.5 12 11.5z"/><path d="m64.8353 430.402-11.1648 11.826-11.8257-11.165 11.1505-12.326z"/><path d="m95.9025 397.496-11.1648 11.825-11.8257-11.165 11.1504-12.325z"/><path d="m3033.5 885.001v11h-33v-48.5h33v12m0 25.5h10.5v-25.5h-10.5m0 25.5v-25.5"/><path d="m3033.5 934.001v11h-33v-48.5h33v12m0 25.5h10.5v-25.5h-10.5m0 25.5v-25.5"/><path d="m3033.5 836.001v11h-33v-48.5h33v12m0 25.5h10.5v-25.5h-10.5m0 25.5v-25.5"/><path d="m2968 907.501v-11h33v48.5h-33v-12m0-25.5h-10.5v25.5h10.5m0-25.5v25.5"/><path d="m2968 858.501v-11h33v48.5h-33v-12m0-25.5h-10.5v25.5h10.5m0-25.5v25.5"/><path d="m2968 809.501v-11h33v48.5h-33v-12m0-25.5h-10.5v25.5h10.5m0-25.5v25.5"/><path d="m2904.5 885.001v11h-33v-48.5h33v12m0 25.5h10.5v-25.5h-10.5m0 25.5v-25.5"/><path d="m2904.5 934.001v11h-33v-48.5h33v12m0 25.5h10.5v-25.5h-10.5m0 25.5v-25.5"/><path d="m2904.5 836.001v11h-33v-48.5h33v12m0 25.5h10.5v-25.5h-10.5m0 25.5v-25.5"/><path d="m2839 907.501v-11h33v48.5h-33v-12m0-25.5h-10.5v25.5h10.5m0-25.5v25.5"/><path d="m2839 858.501v-11h33v48.5h-33v-12m0-25.5h-10.5v25.5h10.5m0-25.5v25.5"/><path d="m2839 809.501v-11h33v48.5h-33v-12m0-25.5h-10.5v25.5h10.5m0-25.5v25.5"/><path d="m2765.5 885.001v11h-33v-48.5h33v12m0 25.5h10.5v-25.5h-10.5m0 25.5v-25.5"/><path d="m2765.5 934.001v11h-33v-48.5h33v12m0 25.5h10.5v-25.5h-10.5m0 25.5v-25.5"/><path d="m2765.5 836.001v11h-33v-48.5h33v12m0 25.5h10.5v-25.5h-10.5m0 25.5v-25.5"/><path d="m2700 907.501v-11h33v48.5h-33v-12m0-25.5h-10.5v25.5h10.5m0-25.5v25.5"/><path d="m2700 858.501v-11h33v48.5h-33v-12m0-25.5h-10.5v25.5h10.5m0-25.5v25.5"/><path d="m2700 809.501v-11h33v48.5h-33v-12m0-25.5h-10.5v25.5h10.5m0-25.5v25.5"/><path d="m2636.5 885.001v11h-33v-48.5h33v12m0 25.5h10.5v-25.5h-10.5m0 25.5v-25.5"/><path d="m2636.5 934.001v11h-33v-48.5h33v12m0 25.5h10.5v-25.5h-10.5m0 25.5v-25.5"/><path d="m2636.5 836.001v11h-33v-48.5h33v12m0 25.5h10.5v-25.5h-10.5m0 25.5v-25.5"/><path d="m2571 907.501v-11h33v48.5h-33v-12m0-25.5h-10.5v25.5h10.5m0-25.5v25.5"/><path d="m2571 858.501v-11h33v48.5h-33v-12m0-25.5h-10.5v25.5h10.5m0-25.5v25.5"/><path d="m2571 809.501v-11h33v48.5h-33v-12m0-25.5h-10.5v25.5h10.5m0-25.5v25.5"/><path d="m2496.5 885.001v11h-33v-48.5h33v12m0 25.5h10.5v-25.5h-10.5m0 25.5v-25.5"/><path d="m2496.5 934.001v11h-33v-48.5h33v12m0 25.5h10.5v-25.5h-10.5m0 25.5v-25.5"/><path d="m2496.5 836.001v11h-33v-48.5h33v12m0 25.5h10.5v-25.5h-10.5m0 25.5v-25.5"/><path d="m2431 907.501v-11h33v48.5h-33v-12m0-25.5h-10.5v25.5h10.5m0-25.5v25.5"/><path d="m2431 858.501v-11h33v48.5h-33v-12m0-25.5h-10.5v25.5h10.5m0-25.5v25.5"/><path d="m2431 809.501v-11h33v48.5h-33v-12m0-25.5h-10.5v25.5h10.5m0-25.5v25.5"/><path d="m2365.5 885.001v11h-33v-48.5h33v12m0 25.5h10.5v-25.5h-10.5m0 25.5v-25.5"/><path d="m2365.5 934.001v11h-33v-48.5h33v12m0 25.5h10.5v-25.5h-10.5m0 25.5v-25.5"/><path d="m2365.5 836.001v11h-33v-48.5h33v12m0 25.5h10.5v-25.5h-10.5m0 25.5v-25.5"/><path d="m2300 907.501v-11h33v48.5h-33v-12m0-25.5h-10.5v25.5h10.5m0-25.5v25.5"/><path d="m2300 858.501v-11h33v48.5h-33v-12m0-25.5h-10.5v25.5h10.5m0-25.5v25.5"/><path d="m2300 809.501v-11h33v48.5h-33v-12m0-25.5h-10.5v25.5h10.5m0-25.5v25.5"/><path d="m2225.5 885.001v11h-33v-48.5h33v12m0 25.5h10.5v-25.5h-10.5m0 25.5v-25.5"/><path d="m2225.5 934.001v11h-33v-48.5h33v12m0 25.5h10.5v-25.5h-10.5m0 25.5v-25.5"/><path d="m2225.5 836.001v11h-33v-48.5h33v12m0 25.5h10.5v-25.5h-10.5m0 25.5v-25.5"/><path d="m2160 907.501v-11h33v48.5h-33v-12m0-25.5h-10.5v25.5h10.5m0-25.5v25.5"/><path d="m2160 858.501v-11h33v48.5h-33v-12m0-25.5h-10.5v25.5h10.5m0-25.5v25.5"/><path d="m2160 809.501v-11h33v48.5h-33v-12m0-25.5h-10.5v25.5h10.5m0-25.5v25.5"/><path d="m2095.5 885.001v11h-33v-48.5h33v12m0 25.5h10.5v-25.5h-10.5m0 25.5v-25.5"/><path d="m2095.5 934.001v11h-33v-48.5h33v12m0 25.5h10.5v-25.5h-10.5m0 25.5v-25.5"/><path d="m2095.5 836.001v11h-33v-48.5h33v12m0 25.5h10.5v-25.5h-10.5m0 25.5v-25.5"/><path d="m2030 907.501v-11h33v48.5h-33v-12m0-25.5h-10.5v25.5h10.5m0-25.5v25.5"/><path d="m2030 858.501v-11h33v48.5h-33v-12m0-25.5h-10.5v25.5h10.5m0-25.5v25.5"/><path d="m2030 809.501v-11h33v48.5h-33v-12m0-25.5h-10.5v25.5h10.5m0-25.5v25.5"/><path d="m1955.5 885.001v11h-33v-48.5h33v12m0 25.5h10.5v-25.5h-10.5m0 25.5v-25.5"/><path d="m1955.5 934.001v11h-33v-48.5h33v12m0 25.5h10.5v-25.5h-10.5m0 25.5v-25.5"/><path d="m1955.5 836.001v11h-33v-48.5h33v12m0 25.5h10.5v-25.5h-10.5m0 25.5v-25.5"/><path d="m1890 907.501v-11h33v48.5h-33v-12m0-25.5h-10.5v25.5h10.5m0-25.5v25.5"/><path d="m1890 858.501v-11h33v48.5h-33v-12m0-25.5h-10.5v25.5h10.5m0-25.5v25.5"/><path d="m1890 809.501v-11h33v48.5h-33v-12m0-25.5h-10.5v25.5h10.5m0-25.5v25.5"/><path d="m1824.5 885.001v11h-33v-48.5h33v12m0 25.5h10.5v-25.5h-10.5m0 25.5v-25.5"/><path d="m1824.5 934.001v11h-33v-48.5h33v12m0 25.5h10.5v-25.5h-10.5m0 25.5v-25.5"/><path d="m1824.5 836.001v11h-33v-48.5h33v12m0 25.5h10.5v-25.5h-10.5m0 25.5v-25.5"/><path d="m1759 907.501v-11h33v48.5h-33v-12m0-25.5h-10.5v25.5h10.5m0-25.5v25.5"/><path d="m1759 858.501v-11h33v48.5h-33v-12m0-25.5h-10.5v25.5h10.5m0-25.5v25.5"/><path d="m1759 809.501v-11h33v48.5h-33v-12m0-25.5h-10.5v25.5h10.5m0-25.5v25.5"/><path d="m1534.5 885.001v11h-33v-48.5h33v12m0 25.5h10.5v-25.5h-10.5m0 25.5v-25.5"/><path d="m1534.5 934.001v11h-33v-48.5h33v12m0 25.5h10.5v-25.5h-10.5m0 25.5v-25.5"/><path d="m1534.5 836.001v11h-33v-48.5h33v12m0 25.5h10.5v-25.5h-10.5m0 25.5v-25.5"/><path d="m1469 907.501v-11h33v48.5h-33v-12m0-25.5h-10.5v25.5h10.5m0-25.5v25.5"/><path d="m1469 858.501v-11h33v48.5h-33v-12m0-25.5h-10.5v25.5h10.5m0-25.5v25.5"/><path d="m1469 809.501v-11h33v48.5h-33v-12m0-25.5h-10.5v25.5h10.5m0-25.5v25.5"/><path d="m1403.5 885.001v11h-33v-48.5h33v12m0 25.5h10.5v-25.5h-10.5m0 25.5v-25.5"/><path d="m1403.5 934.001v11h-33v-48.5h33v12m0 25.5h10.5v-25.5h-10.5m0 25.5v-25.5"/><path d="m1403.5 836.001v11h-33v-48.5h33v12m0 25.5h10.5v-25.5h-10.5m0 25.5v-25.5"/><path d="m1338 907.501v-11h33v48.5h-33v-12m0-25.5h-10.5v25.5h10.5m0-25.5v25.5"/><path d="m1338 858.501v-11h33v48.5h-33v-12m0-25.5h-10.5v25.5h10.5m0-25.5v25.5"/><path d="m1338 809.501v-11h33v48.5h-33v-12m0-25.5h-10.5v25.5h10.5m0-25.5v25.5"/><path d="m1263.5 885.001v11h-33v-48.5h33v12m0 25.5h10.5v-25.5h-10.5m0 25.5v-25.5"/><path d="m1263.5 934.001v11h-33v-48.5h33v12m0 25.5h10.5v-25.5h-10.5m0 25.5v-25.5"/><path d="m1263.5 836.001v11h-33v-48.5h33v12m0 25.5h10.5v-25.5h-10.5m0 25.5v-25.5"/><path d="m1198 907.501v-11h33v48.5h-33v-12m0-25.5h-10.5v25.5h10.5m0-25.5v25.5"/><path d="m1198 858.501v-11h33v48.5h-33v-12m0-25.5h-10.5v25.5h10.5m0-25.5v25.5"/><path d="m1198 809.501v-11h33v48.5h-33v-12m0-25.5h-10.5v25.5h10.5m0-25.5v25.5"/><path d="m1133.5 885.001v11h-33v-48.5h33v12m0 25.5h10.5v-25.5h-10.5m0 25.5v-25.5"/><path d="m1133.5 934.001v11h-33v-48.5h33v12m0 25.5h10.5v-25.5h-10.5m0 25.5v-25.5"/><path d="m1133.5 836.001v11h-33v-48.5h33v12m0 25.5h10.5v-25.5h-10.5m0 25.5v-25.5"/><path d="m1068 907.501v-11h33v48.5h-33v-12m0-25.5h-10.5v25.5h10.5m0-25.5v25.5"/><path d="m1068 858.501v-11h33v48.5h-33v-12m0-25.5h-10.5v25.5h10.5m0-25.5v25.5"/><path d="m1068 809.501v-11h33v48.5h-33v-12m0-25.5h-10.5v25.5h10.5m0-25.5v25.5"/><path d="m993.5 885.001v11h-33v-48.5h33v12m0 25.5h10.5v-25.5h-10.5m0 25.5v-25.5"/><path d="m993.5 934.001v11h-33v-48.5h33v12m0 25.5h10.5v-25.5h-10.5m0 25.5v-25.5"/><path d="m993.5 836.001v11h-33v-48.5h33v12m0 25.5h10.5v-25.5h-10.5m0 25.5v-25.5"/><path d="m928 907.501v-11h33v48.5h-33v-12m0-25.5h-10.5v25.5h10.5m0-25.5v25.5"/><path d="m928 858.501v-11h33v48.5h-33v-12m0-25.5h-10.5v25.5h10.5m0-25.5v25.5"/><path d="m928 809.501v-11h33v48.5h-33v-12m0-25.5h-10.5v25.5h10.5m0-25.5v25.5"/><path d="m863.5 885.001v11h-33v-48.5h33v12m0 25.5h10.5v-25.5h-10.5m0 25.5v-25.5"/><path d="m863.5 934.001v11h-33v-48.5h33v12m0 25.5h10.5v-25.5h-10.5m0 25.5v-25.5"/><path d="m863.5 836.001v11h-33v-48.5h33v12m0 25.5h10.5v-25.5h-10.5m0 25.5v-25.5"/><path d="m798 907.501v-11h33v48.5h-33v-12m0-25.5h-10.5v25.5h10.5m0-25.5v25.5"/><path d="m798 858.501v-11h33v48.5h-33v-12m0-25.5h-10.5v25.5h10.5m0-25.5v25.5"/><path d="m798 809.501v-11h33v48.5h-33v-12m0-25.5h-10.5v25.5h10.5m0-25.5v25.5"/><path d="m723.5 885.001v11h-33v-48.5h33v12m0 25.5h10.5v-25.5h-10.5m0 25.5v-25.5"/><path d="m723.5 934.001v11h-33v-48.5h33v12m0 25.5h10.5v-25.5h-10.5m0 25.5v-25.5"/><path d="m723.5 836.001v11h-33v-48.5h33v12m0 25.5h10.5v-25.5h-10.5m0 25.5v-25.5"/><path d="m658 907.501v-11h33v48.5h-33v-12m0-25.5h-10.5v25.5h10.5m0-25.5v25.5"/><path d="m658 858.501v-11h33v48.5h-33v-12m0-25.5h-10.5v25.5h10.5m0-25.5v25.5"/><path d="m658 809.501v-11h33v48.5h-33v-12m0-25.5h-10.5v25.5h10.5m0-25.5v25.5"/><path d="m592.5 885.001v11h-33v-48.5h33v12m0 25.5h10.5v-25.5h-10.5m0 25.5v-25.5"/><path d="m592.5 934.001v11h-33v-48.5h33v12m0 25.5h10.5v-25.5h-10.5m0 25.5v-25.5"/><path d="m592.5 836.001v11h-33v-48.5h33v12m0 25.5h10.5v-25.5h-10.5m0 25.5v-25.5"/><path d="m527 907.501v-11h33v48.5h-33v-12m0-25.5h-10.5v25.5h10.5m0-25.5v25.5"/><path d="m527 858.501v-11h33v48.5h-33v-12m0-25.5h-10.5v25.5h10.5m0-25.5v25.5"/><path d="m527 809.501v-11h33v48.5h-33v-12m0-25.5h-10.5v25.5h10.5m0-25.5v25.5"/><path d="m3033.5 175.001v11h-33v-48.5h33v12m0 25.5h10.5v-25.5h-10.5m0 25.5v-25.5"/><path d="m3033.5 224.001v11h-33v-48.5h33v12m0 25.5h10.5v-25.5h-10.5m0 25.5v-25.5"/><path d="m3033.5 126.001v11h-33v-48.5005h33v12.0005m0 25.5h10.5v-25.5h-10.5m0 25.5v-25.5"/><path d="m2968 197.501v-11h33v48.5h-33v-12m0-25.5h-10.5v25.5h10.5m0-25.5v25.5"/><path d="m2968 148.501v-11h33v48.5h-33v-12m0-25.5h-10.5v25.5h10.5m0-25.5v25.5"/><path d="m2968 99.5005v-11h33v48.5005h-33v-12m0-25.5005h-10.5v25.5005h10.5m0-25.5005v25.5005"/><path d="m2904.5 175.001v11h-33v-48.5h33v12m0 25.5h10.5v-25.5h-10.5m0 25.5v-25.5"/><path d="m2904.5 224.001v11h-33v-48.5h33v12m0 25.5h10.5v-25.5h-10.5m0 25.5v-25.5"/><path d="m2904.5 126.001v11h-33v-48.5005h33v12.0005m0 25.5h10.5v-25.5h-10.5m0 25.5v-25.5"/><path d="m2839 197.501v-11h33v48.5h-33v-12m0-25.5h-10.5v25.5h10.5m0-25.5v25.5"/><path d="m2839 148.501v-11h33v48.5h-33v-12m0-25.5h-10.5v25.5h10.5m0-25.5v25.5"/><path d="m2839 99.5005v-11h33v48.5005h-33v-12m0-25.5005h-10.5v25.5005h10.5m0-25.5005v25.5005"/><path d="m2765.5 175.001v11h-33v-48.5h33v12m0 25.5h10.5v-25.5h-10.5m0 25.5v-25.5"/><path d="m2765.5 224.001v11h-33v-48.5h33v12m0 25.5h10.5v-25.5h-10.5m0 25.5v-25.5"/><path d="m2765.5 126.001v11h-33v-48.5005h33v12.0005m0 25.5h10.5v-25.5h-10.5m0 25.5v-25.5"/><path d="m2700 197.501v-11h33v48.5h-33v-12m0-25.5h-10.5v25.5h10.5m0-25.5v25.5"/><path d="m2700 148.501v-11h33v48.5h-33v-12m0-25.5h-10.5v25.5h10.5m0-25.5v25.5"/><path d="m2700 99.5005v-11h33v48.5005h-33v-12m0-25.5005h-10.5v25.5005h10.5m0-25.5005v25.5005"/><path d="m2636.5 175.001v11h-33v-48.5h33v12m0 25.5h10.5v-25.5h-10.5m0 25.5v-25.5"/><path d="m2636.5 224.001v11h-33v-48.5h33v12m0 25.5h10.5v-25.5h-10.5m0 25.5v-25.5"/><path d="m2636.5 126.001v11h-33v-48.5005h33v12.0005m0 25.5h10.5v-25.5h-10.5m0 25.5v-25.5"/><path d="m2571 197.501v-11h33v48.5h-33v-12m0-25.5h-10.5v25.5h10.5m0-25.5v25.5"/><path d="m2571 148.501v-11h33v48.5h-33v-12m0-25.5h-10.5v25.5h10.5m0-25.5v25.5"/><path d="m2571 99.5005v-11h33v48.5005h-33v-12m0-25.5005h-10.5v25.5005h10.5m0-25.5005v25.5005"/><path d="m2496.5 175.001v11h-33v-48.5h33v12m0 25.5h10.5v-25.5h-10.5m0 25.5v-25.5"/><path d="m2496.5 224.001v11h-33v-48.5h33v12m0 25.5h10.5v-25.5h-10.5m0 25.5v-25.5"/><path d="m2496.5 126.001v11h-33v-48.5005h33v12.0005m0 25.5h10.5v-25.5h-10.5m0 25.5v-25.5"/><path d="m2431 197.501v-11h33v48.5h-33v-12m0-25.5h-10.5v25.5h10.5m0-25.5v25.5"/><path d="m2431 148.501v-11h33v48.5h-33v-12m0-25.5h-10.5v25.5h10.5m0-25.5v25.5"/><path d="m2431 99.5005v-11h33v48.5005h-33v-12m0-25.5005h-10.5v25.5005h10.5m0-25.5005v25.5005"/><path d="m2365.5 175.001v11h-33v-48.5h33v12m0 25.5h10.5v-25.5h-10.5m0 25.5v-25.5"/><path d="m2365.5 224.001v11h-33v-48.5h33v12m0 25.5h10.5v-25.5h-10.5m0 25.5v-25.5"/><path d="m2365.5 126.001v11h-33v-48.5005h33v12.0005m0 25.5h10.5v-25.5h-10.5m0 25.5v-25.5"/><path d="m2300 197.501v-11h33v48.5h-33v-12m0-25.5h-10.5v25.5h10.5m0-25.5v25.5"/><path d="m2300 148.501v-11h33v48.5h-33v-12m0-25.5h-10.5v25.5h10.5m0-25.5v25.5"/><path d="m2300 99.5005v-11h33v48.5005h-33v-12m0-25.5005h-10.5v25.5005h10.5m0-25.5005v25.5005"/><path d="m2225.5 175.001v11h-33v-48.5h33v12m0 25.5h10.5v-25.5h-10.5m0 25.5v-25.5"/><path d="m2225.5 224.001v11h-33v-48.5h33v12m0 25.5h10.5v-25.5h-10.5m0 25.5v-25.5"/><path d="m2225.5 126.001v11h-33v-48.5005h33v12.0005m0 25.5h10.5v-25.5h-10.5m0 25.5v-25.5"/><path d="m2160 197.501v-11h33v48.5h-33v-12m0-25.5h-10.5v25.5h10.5m0-25.5v25.5"/><path d="m2160 148.501v-11h33v48.5h-33v-12m0-25.5h-10.5v25.5h10.5m0-25.5v25.5"/><path d="m2160 99.5005v-11h33v48.5005h-33v-12m0-25.5005h-10.5v25.5005h10.5m0-25.5005v25.5005"/><path d="m2095.5 175.001v11h-33v-48.5h33v12m0 25.5h10.5v-25.5h-10.5m0 25.5v-25.5"/><path d="m2095.5 224.001v11h-33v-48.5h33v12m0 25.5h10.5v-25.5h-10.5m0 25.5v-25.5"/><path d="m2095.5 126.001v11h-33v-48.5005h33v12.0005m0 25.5h10.5v-25.5h-10.5m0 25.5v-25.5"/><path d="m2030 197.501v-11h33v48.5h-33v-12m0-25.5h-10.5v25.5h10.5m0-25.5v25.5"/><path d="m2030 148.501v-11h33v48.5h-33v-12m0-25.5h-10.5v25.5h10.5m0-25.5v25.5"/><path d="m2030 99.5005v-11h33v48.5005h-33v-12m0-25.5005h-10.5v25.5005h10.5m0-25.5005v25.5005"/><path d="m1955.5 175.001v11h-33v-48.5h33v12m0 25.5h10.5v-25.5h-10.5m0 25.5v-25.5"/><path d="m1955.5 224.001v11h-33v-48.5h33v12m0 25.5h10.5v-25.5h-10.5m0 25.5v-25.5"/><path d="m1955.5 126.001v11h-33v-48.5005h33v12.0005m0 25.5h10.5v-25.5h-10.5m0 25.5v-25.5"/><path d="m1890 197.501v-11h33v48.5h-33v-12m0-25.5h-10.5v25.5h10.5m0-25.5v25.5"/><path d="m1890 148.501v-11h33v48.5h-33v-12m0-25.5h-10.5v25.5h10.5m0-25.5v25.5"/><path d="m1890 99.5005v-11h33v48.5005h-33v-12m0-25.5005h-10.5v25.5005h10.5m0-25.5005v25.5005"/><path d="m1824.5 175.001v11h-33v-48.5h33v12m0 25.5h10.5v-25.5h-10.5m0 25.5v-25.5"/><path d="m1824.5 224.001v11h-33v-48.5h33v12m0 25.5h10.5v-25.5h-10.5m0 25.5v-25.5"/><path d="m1824.5 126.001v11h-33v-48.5005h33v12.0005m0 25.5h10.5v-25.5h-10.5m0 25.5v-25.5"/><path d="m1759 197.501v-11h33v48.5h-33v-12m0-25.5h-10.5v25.5h10.5m0-25.5v25.5"/><path d="m1759 148.501v-11h33v48.5h-33v-12m0-25.5h-10.5v25.5h10.5m0-25.5v25.5"/><path d="m1759 99.5005v-11h33v48.5005h-33v-12m0-25.5005h-10.5v25.5005h10.5m0-25.5005v25.5005"/><path d="m1534.5 175.001v11h-33v-48.5h33v12m0 25.5h10.5v-25.5h-10.5m0 25.5v-25.5"/><path d="m1534.5 224.001v11h-33v-48.5h33v12m0 25.5h10.5v-25.5h-10.5m0 25.5v-25.5"/><path d="m1534.5 126.001v11h-33v-48.5005h33v12.0005m0 25.5h10.5v-25.5h-10.5m0 25.5v-25.5"/><path d="m1469 197.501v-11h33v48.5h-33v-12m0-25.5h-10.5v25.5h10.5m0-25.5v25.5"/><path d="m1469 148.501v-11h33v48.5h-33v-12m0-25.5h-10.5v25.5h10.5m0-25.5v25.5"/><path d="m1469 99.5005v-11h33v48.5005h-33v-12m0-25.5005h-10.5v25.5005h10.5m0-25.5005v25.5005"/><path d="m1403.5 175.001v11h-33v-48.5h33v12m0 25.5h10.5v-25.5h-10.5m0 25.5v-25.5"/><path d="m1403.5 224.001v11h-33v-48.5h33v12m0 25.5h10.5v-25.5h-10.5m0 25.5v-25.5"/><path d="m1403.5 126.001v11h-33v-48.5005h33v12.0005m0 25.5h10.5v-25.5h-10.5m0 25.5v-25.5"/><path d="m1338 197.501v-11h33v48.5h-33v-12m0-25.5h-10.5v25.5h10.5m0-25.5v25.5"/><path d="m1338 148.501v-11h33v48.5h-33v-12m0-25.5h-10.5v25.5h10.5m0-25.5v25.5"/><path d="m1338 99.5005v-11h33v48.5005h-33v-12m0-25.5005h-10.5v25.5005h10.5m0-25.5005v25.5005"/><path d="m1263.5 175.001v11h-33v-48.5h33v12m0 25.5h10.5v-25.5h-10.5m0 25.5v-25.5"/><path d="m1263.5 224.001v11h-33v-48.5h33v12m0 25.5h10.5v-25.5h-10.5m0 25.5v-25.5"/><path d="m1263.5 126.001v11h-33v-48.5005h33v12.0005m0 25.5h10.5v-25.5h-10.5m0 25.5v-25.5"/><path d="m1198 197.501v-11h33v48.5h-33v-12m0-25.5h-10.5v25.5h10.5m0-25.5v25.5"/><path d="m1198 148.501v-11h33v48.5h-33v-12m0-25.5h-10.5v25.5h10.5m0-25.5v25.5"/><path d="m1198 99.5005v-11h33v48.5005h-33v-12m0-25.5005h-10.5v25.5005h10.5m0-25.5005v25.5005"/><path d="m1133.5 175.001v11h-33v-48.5h33v12m0 25.5h10.5v-25.5h-10.5m0 25.5v-25.5"/><path d="m1133.5 224.001v11h-33v-48.5h33v12m0 25.5h10.5v-25.5h-10.5m0 25.5v-25.5"/><path d="m1133.5 126.001v11h-33v-48.5005h33v12.0005m0 25.5h10.5v-25.5h-10.5m0 25.5v-25.5"/><path d="m1068 197.501v-11h33v48.5h-33v-12m0-25.5h-10.5v25.5h10.5m0-25.5v25.5"/><path d="m1068 148.501v-11h33v48.5h-33v-12m0-25.5h-10.5v25.5h10.5m0-25.5v25.5"/><path d="m1068 99.5005v-11h33v48.5005h-33v-12m0-25.5005h-10.5v25.5005h10.5m0-25.5005v25.5005"/><path d="m993.5 175.001v11h-33v-48.5h33v12m0 25.5h10.5v-25.5h-10.5m0 25.5v-25.5"/><path d="m993.5 224.001v11h-33v-48.5h33v12m0 25.5h10.5v-25.5h-10.5m0 25.5v-25.5"/><path d="m993.5 126.001v11h-33v-48.5005h33v12.0005m0 25.5h10.5v-25.5h-10.5m0 25.5v-25.5"/><path d="m928 197.501v-11h33v48.5h-33v-12m0-25.5h-10.5v25.5h10.5m0-25.5v25.5"/><path d="m928 148.501v-11h33v48.5h-33v-12m0-25.5h-10.5v25.5h10.5m0-25.5v25.5"/><path d="m928 99.5005v-11h33v48.5005h-33v-12m0-25.5005h-10.5v25.5005h10.5m0-25.5005v25.5005"/><path d="m863.5 175.001v11h-33v-48.5h33v12m0 25.5h10.5v-25.5h-10.5m0 25.5v-25.5"/><path d="m863.5 224.001v11h-33v-48.5h33v12m0 25.5h10.5v-25.5h-10.5m0 25.5v-25.5"/><path d="m863.5 126.001v11h-33v-48.5005h33v12.0005m0 25.5h10.5v-25.5h-10.5m0 25.5v-25.5"/><path d="m798 197.501v-11h33v48.5h-33v-12m0-25.5h-10.5v25.5h10.5m0-25.5v25.5"/><path d="m798 148.501v-11h33v48.5h-33v-12m0-25.5h-10.5v25.5h10.5m0-25.5v25.5"/><path d="m798 99.5005v-11h33v48.5005h-33v-12m0-25.5005h-10.5v25.5005h10.5m0-25.5005v25.5005"/><path d="m723.5 175.001v11h-33v-48.5h33v12m0 25.5h10.5v-25.5h-10.5m0 25.5v-25.5"/><path d="m723.5 224.001v11h-33v-48.5h33v12m0 25.5h10.5v-25.5h-10.5m0 25.5v-25.5"/><path d="m723.5 126.001v11h-33v-48.5005h33v12.0005m0 25.5h10.5v-25.5h-10.5m0 25.5v-25.5"/><path d="m658 197.501v-11h33v48.5h-33v-12m0-25.5h-10.5v25.5h10.5m0-25.5v25.5"/><path d="m658 148.501v-11h33v48.5h-33v-12m0-25.5h-10.5v25.5h10.5m0-25.5v25.5"/><path d="m658 99.5005v-11h33v48.5005h-33v-12m0-25.5005h-10.5v25.5005h10.5m0-25.5005v25.5005"/><path d="m592.5 175.001v11h-33v-48.5h33v12m0 25.5h10.5v-25.5h-10.5m0 25.5v-25.5"/><path d="m592.5 224.001v11h-33v-48.5h33v12m0 25.5h10.5v-25.5h-10.5m0 25.5v-25.5"/><path d="m592.5 126.001v11h-33v-48.5005h33v12.0005m0 25.5h10.5v-25.5h-10.5m0 25.5v-25.5"/><path d="m527 197.501v-11h33v48.5h-33v-12m0-25.5h-10.5v25.5h10.5m0-25.5v25.5"/><path d="m527 148.501v-11h33v48.5h-33v-12m0-25.5h-10.5v25.5h10.5m0-25.5v25.5"/><path d="m527 99.5005v-11h33v48.5005h-33v-12m0-25.5005h-10.5v25.5005h10.5m0-25.5005v25.5005"/><path d="m2953 337.501h-105.5v362h105.5m45.5 0h45.5m43.5 0h140.5v-362h-140.5m-43.5 0h-45.5"/><path d="m2960.5 632.501h-47c-2.76 0-5-2.239-5-5v-218c0-2.762 2.24-5 5-5h47c2.76 0 5 2.238 5 5v218c0 2.761-2.24 5-5 5z"/><path d="m2970 613.501v9c0 1.933 1.57 3.5 3.5 3.5h6.41c1.89 0 3.63-1.07 4.47-2.764l1.5-3c.71-1.408.71-3.065 0-4.473l-1.5-3c-.84-1.693-2.58-2.763-4.47-2.763h-6.41c-1.93 0-3.5 1.567-3.5 3.5z"/><path d="m2904 622.501v-9c0-1.933-1.57-3.5-3.5-3.5h-6.41c-1.89 0-3.63 1.07-4.47 2.763l-1.5 3c-.71 1.408-.71 3.065 0 4.473l1.5 3c.84 1.694 2.58 2.764 4.47 2.764h6.41c1.93 0 3.5-1.567 3.5-3.5z"/><path d="m2969.5 585.001v9c0 1.933 1.57 3.5 3.5 3.5h6.41c1.89 0 3.63-1.07 4.47-2.764l1.5-3c.71-1.408.71-3.065 0-4.473l-1.5-3c-.84-1.693-2.58-2.763-4.47-2.763h-6.41c-1.93 0-3.5 1.567-3.5 3.5z"/><path d="m2903.5 594.001v-9c0-1.933-1.57-3.5-3.5-3.5h-6.41c-1.89 0-3.63 1.07-4.47 2.763l-1.5 3c-.71 1.408-.71 3.065 0 4.473l1.5 3c.84 1.694 2.58 2.764 4.47 2.764h6.41c1.93 0 3.5-1.567 3.5-3.5z"/><path d="m2969.5 557.001v9c0 1.933 1.57 3.5 3.5 3.5h6.41c1.89 0 3.63-1.07 4.47-2.764l1.5-3c.71-1.408.71-3.065 0-4.473l-1.5-3c-.84-1.693-2.58-2.763-4.47-2.763h-6.41c-1.93 0-3.5 1.567-3.5 3.5z"/><path d="m2903.5 566.001v-9c0-1.933-1.57-3.5-3.5-3.5h-6.41c-1.89 0-3.63 1.07-4.47 2.763l-1.5 3c-.71 1.408-.71 3.065 0 4.473l1.5 3c.84 1.694 2.58 2.764 4.47 2.764h6.41c1.93 0 3.5-1.567 3.5-3.5z"/><path d="m2969.5 527.001v9c0 1.933 1.57 3.5 3.5 3.5h6.41c1.89 0 3.63-1.07 4.47-2.764l1.5-3c.71-1.408.71-3.065 0-4.473l-1.5-3c-.84-1.693-2.58-2.763-4.47-2.763h-6.41c-1.93 0-3.5 1.567-3.5 3.5z"/><path d="m2903.5 536.001v-9c0-1.933-1.57-3.5-3.5-3.5h-6.41c-1.89 0-3.63 1.07-4.47 2.763l-1.5 3c-.71 1.408-.71 3.065 0 4.473l1.5 3c.84 1.694 2.58 2.764 4.47 2.764h6.41c1.93 0 3.5-1.567 3.5-3.5z"/><path d="m2969.5 499.001v9c0 1.933 1.57 3.5 3.5 3.5h6.41c1.89 0 3.63-1.07 4.47-2.764l1.5-3c.71-1.408.71-3.065 0-4.473l-1.5-3c-.84-1.693-2.58-2.763-4.47-2.763h-6.41c-1.93 0-3.5 1.567-3.5 3.5z"/><path d="m2903.5 508.001v-9c0-1.933-1.57-3.5-3.5-3.5h-6.41c-1.89 0-3.63 1.07-4.47 2.763l-1.5 3c-.71 1.408-.71 3.065 0 4.473l1.5 3c.84 1.694 2.58 2.764 4.47 2.764h6.41c1.93 0 3.5-1.567 3.5-3.5z"/><path d="m2969.5 471.001v9c0 1.933 1.57 3.5 3.5 3.5h6.41c1.89 0 3.63-1.07 4.47-2.764l1.5-3c.71-1.408.71-3.065 0-4.473l-1.5-3c-.84-1.693-2.58-2.763-4.47-2.763h-6.41c-1.93 0-3.5 1.567-3.5 3.5z"/><path d="m2903.5 480.001v-9c0-1.933-1.57-3.5-3.5-3.5h-6.41c-1.89 0-3.63 1.07-4.47 2.763l-1.5 3c-.71 1.408-.71 3.065 0 4.473l1.5 3c.84 1.694 2.58 2.764 4.47 2.764h6.41c1.93 0 3.5-1.567 3.5-3.5z"/><path d="m2969.5 443.001v9c0 1.933 1.57 3.5 3.5 3.5h6.41c1.89 0 3.63-1.07 4.47-2.764l1.5-3c.71-1.408.71-3.065 0-4.473l-1.5-3c-.84-1.693-2.58-2.763-4.47-2.763h-6.41c-1.93 0-3.5 1.567-3.5 3.5z"/><path d="m2903.5 452.001v-9c0-1.933-1.57-3.5-3.5-3.5h-6.41c-1.89 0-3.63 1.07-4.47 2.763l-1.5 3c-.71 1.408-.71 3.065 0 4.473l1.5 3c.84 1.694 2.58 2.764 4.47 2.764h6.41c1.93 0 3.5-1.567 3.5-3.5z"/><path d="m2969.5 415.001v9c0 1.933 1.57 3.5 3.5 3.5h6.41c1.89 0 3.63-1.07 4.47-2.764l1.5-3c.71-1.408.71-3.065 0-4.473l-1.5-3c-.84-1.693-2.58-2.763-4.47-2.763h-6.41c-1.93 0-3.5 1.567-3.5 3.5z"/><path d="m2903.5 424.001v-9c0-1.933-1.57-3.5-3.5-3.5h-6.41c-1.89 0-3.63 1.07-4.47 2.763l-1.5 3c-.71 1.408-.71 3.065 0 4.473l1.5 3c.84 1.694 2.58 2.764 4.47 2.764h6.41c1.93 0 3.5-1.567 3.5-3.5z"/><path d="m2947.5 399.001h9c1.93 0 3.5-1.567 3.5-3.5v-6.41c0-1.894-1.07-3.625-2.76-4.472l-3-1.5c-1.41-.704-3.07-.704-4.48 0l-3 1.5c-1.69.847-2.76 2.578-2.76 4.472v6.41c0 1.933 1.57 3.5 3.5 3.5z"/><path d="m2918 399.501h9c1.93 0 3.5-1.567 3.5-3.5v-6.41c0-1.894-1.07-3.625-2.76-4.472l-3-1.5c-1.41-.704-3.07-.704-4.48 0l-3 1.5c-1.69.847-2.76 2.578-2.76 4.472v6.41c0 1.933 1.57 3.5 3.5 3.5z"/><path d="m3166.5 403.001h-76.02c-2.75 0-4.99 2.225-5 4.978l-.96 219c-.01 2.77 2.23 5.022 5 5.022h76.98c2.76 0 5-2.239 5-5v-219c0-2.762-2.24-5-5-5z"/><path d="m3175 613.501v9c0 1.933 1.57 3.5 3.5 3.5h6.41c1.89 0 3.63-1.07 4.47-2.764l1.5-3c.71-1.408.71-3.065 0-4.473l-1.5-3c-.84-1.693-2.58-2.763-4.47-2.763h-6.41c-1.93 0-3.5 1.567-3.5 3.5z"/><path d="m3082 622.501v-9c0-1.933-1.57-3.5-3.5-3.5h-6.41c-1.89 0-3.63 1.07-4.47 2.763l-1.5 3c-.71 1.408-.71 3.065 0 4.473l1.5 3c.84 1.694 2.58 2.764 4.47 2.764h6.41c1.93 0 3.5-1.567 3.5-3.5z"/><path d="m3174.5 585.001v9c0 1.933 1.57 3.5 3.5 3.5h6.41c1.89 0 3.63-1.07 4.47-2.764l1.5-3c.71-1.408.71-3.065 0-4.473l-1.5-3c-.84-1.693-2.58-2.763-4.47-2.763h-6.41c-1.93 0-3.5 1.567-3.5 3.5z"/><path d="m3081.5 594.001v-9c0-1.933-1.57-3.5-3.5-3.5h-6.41c-1.89 0-3.63 1.07-4.47 2.763l-1.5 3c-.71 1.408-.71 3.065 0 4.473l1.5 3c.84 1.694 2.58 2.764 4.47 2.764h6.41c1.93 0 3.5-1.567 3.5-3.5z"/><path d="m3174.5 557.001v9c0 1.933 1.57 3.5 3.5 3.5h6.41c1.89 0 3.63-1.07 4.47-2.764l1.5-3c.71-1.408.71-3.065 0-4.473l-1.5-3c-.84-1.693-2.58-2.763-4.47-2.763h-6.41c-1.93 0-3.5 1.567-3.5 3.5z"/><path d="m3081.5 566.001v-9c0-1.933-1.57-3.5-3.5-3.5h-6.41c-1.89 0-3.63 1.07-4.47 2.763l-1.5 3c-.71 1.408-.71 3.065 0 4.473l1.5 3c.84 1.694 2.58 2.764 4.47 2.764h6.41c1.93 0 3.5-1.567 3.5-3.5z"/><path d="m3174.5 527.001v9c0 1.933 1.57 3.5 3.5 3.5h6.41c1.89 0 3.63-1.07 4.47-2.764l1.5-3c.71-1.408.71-3.065 0-4.473l-1.5-3c-.84-1.693-2.58-2.763-4.47-2.763h-6.41c-1.93 0-3.5 1.567-3.5 3.5z"/><path d="m3081.5 536.001v-9c0-1.933-1.57-3.5-3.5-3.5h-6.41c-1.89 0-3.63 1.07-4.47 2.763l-1.5 3c-.71 1.408-.71 3.065 0 4.473l1.5 3c.84 1.694 2.58 2.764 4.47 2.764h6.41c1.93 0 3.5-1.567 3.5-3.5z"/><path d="m3174.5 499.001v9c0 1.933 1.57 3.5 3.5 3.5h6.41c1.89 0 3.63-1.07 4.47-2.764l1.5-3c.71-1.408.71-3.065 0-4.473l-1.5-3c-.84-1.693-2.58-2.763-4.47-2.763h-6.41c-1.93 0-3.5 1.567-3.5 3.5z"/><path d="m3081.5 508.001v-9c0-1.933-1.57-3.5-3.5-3.5h-6.41c-1.89 0-3.63 1.07-4.47 2.763l-1.5 3c-.71 1.408-.71 3.065 0 4.473l1.5 3c.84 1.694 2.58 2.764 4.47 2.764h6.41c1.93 0 3.5-1.567 3.5-3.5z"/><path d="m3174.5 471.001v9c0 1.933 1.57 3.5 3.5 3.5h6.41c1.89 0 3.63-1.07 4.47-2.764l1.5-3c.71-1.408.71-3.065 0-4.473l-1.5-3c-.84-1.693-2.58-2.763-4.47-2.763h-6.41c-1.93 0-3.5 1.567-3.5 3.5z"/><path d="m3081.5 480.001v-9c0-1.933-1.57-3.5-3.5-3.5h-6.41c-1.89 0-3.63 1.07-4.47 2.763l-1.5 3c-.71 1.408-.71 3.065 0 4.473l1.5 3c.84 1.694 2.58 2.764 4.47 2.764h6.41c1.93 0 3.5-1.567 3.5-3.5z"/><path d="m3174.5 443.001v9c0 1.933 1.57 3.5 3.5 3.5h6.41c1.89 0 3.63-1.07 4.47-2.764l1.5-3c.71-1.408.71-3.065 0-4.473l-1.5-3c-.84-1.693-2.58-2.763-4.47-2.763h-6.41c-1.93 0-3.5 1.567-3.5 3.5z"/><path d="m3081.5 452.001v-9c0-1.933-1.57-3.5-3.5-3.5h-6.41c-1.89 0-3.63 1.07-4.47 2.763l-1.5 3c-.71 1.408-.71 3.065 0 4.473l1.5 3c.84 1.694 2.58 2.764 4.47 2.764h6.41c1.93 0 3.5-1.567 3.5-3.5z"/><path d="m3174.5 415.001v9c0 1.933 1.57 3.5 3.5 3.5h6.41c1.89 0 3.63-1.07 4.47-2.764l1.5-3c.71-1.408.71-3.065 0-4.473l-1.5-3c-.84-1.693-2.58-2.763-4.47-2.763h-6.41c-1.93 0-3.5 1.567-3.5 3.5z"/><path d="m3081.5 424.001v-9c0-1.933-1.57-3.5-3.5-3.5h-6.41c-1.89 0-3.63 1.07-4.47 2.763l-1.5 3c-.71 1.408-.71 3.065 0 4.473l1.5 3c.84 1.694 2.58 2.764 4.47 2.764h6.41c1.93 0 3.5-1.567 3.5-3.5z"/><path d="m3095.5 399.001h9c1.93 0 3.5-1.567 3.5-3.5v-6.41c0-1.894-1.07-3.625-2.76-4.472l-3-1.5c-1.41-.704-3.07-.704-4.48 0l-3 1.5c-1.69.847-2.76 2.578-2.76 4.472v6.41c0 1.933 1.57 3.5 3.5 3.5z"/><path d="m3124 399.501h9c1.93 0 3.5-1.567 3.5-3.5v-6.41c0-1.894-1.07-3.625-2.76-4.472l-3-1.5c-1.41-.704-3.07-.704-4.48 0l-3 1.5c-1.69.847-2.76 2.578-2.76 4.472v6.41c0 1.933 1.57 3.5 3.5 3.5z"/><path d="m3153 399.501h9c1.93 0 3.5-1.567 3.5-3.5v-6.41c0-1.894-1.07-3.625-2.76-4.472l-3-1.5c-1.41-.704-3.07-.704-4.48 0l-3 1.5c-1.69.847-2.76 2.578-2.76 4.472v6.41c0 1.933 1.57 3.5 3.5 3.5z"/><path d="m3169.12 178.219-12.85 13.322 11.43 11.199 12.85-13.323z"/><path d="m3206.97 216.379-12.84 13.322 11.43 11.198 12.84-13.322z"/><path d="m3156.25 227.928 13.22 12.947 11.1-11.522-13.21-12.948z"/><path d="m3194.1 189.766 13.22 12.947 11.11-11.522-13.22-12.948z"/><path d="m3186.14 193.825-14.4 14.605c-1.93 1.966-1.92 5.145.03 7.099l10.6 10.618c1.95 1.954 5.1 1.944 7.04-.023l14.4-14.605c1.93-1.966 1.92-5.145-.03-7.099l-10.6-10.618c-1.95-1.954-5.1-1.944-7.04.023z"/><path d="m3224.01 103.406h-71.22v32.134h71.22z"/><path d="m3188.15 83.322h-18.93v15.5651h18.93z"/><path d="m3227.5 245.501v-239.00045h-130v239.00045z"/><path d="m3219 751.501h-60c-2.76 0-5 2.238-5 5v21.5c0 2.761 2.24 5 5 5h60c2.76 0 5-2.239 5-5v-21.5c0-2.762-2.24-5-5-5z"/><path d="m3184.5 731.501h-10c-2.76 0-5 2.238-5 5v4.5c0 2.761 2.24 5 5 5h10c2.76 0 5-2.239 5-5v-4.5c0-2.762-2.24-5-5-5z"/><circle cx="3186.5" cy="829.501" r="14.5"/><path d="m3170.5 833.001v-8c0-2.762-2.24-5-5-5h-6c-2.76 0-5 2.238-5 5v8c0 2.761 2.24 5 5 5h6c2.76 0 5-2.239 5-5z"/><path d="m3220.5 833.501v-8c0-2.762-2.24-5-5-5h-6c-2.76 0-5 2.238-5 5v8c0 2.761 2.24 5 5 5h6c2.76 0 5-2.239 5-5z"/><path d="m3228 851.001v-150.5h-129.5v150.5z"/><path d="m3219.03 935.855h-59.46c-2.77 0-5-2.239-5-5v-20.943c0-2.761 2.23-5 5-5h59.46c2.76 0 5 2.239 5 5v20.943c0 2.761-2.24 5-5 5z"/><path d="m3184.79 955.501h-9.84c-2.77 0-5-2.239-5-5v-4.244c0-2.761 2.23-5 5-5h9.84c2.76 0 5 2.239 5 5v4.244c0 2.761-2.24 5-5 5z"/><path d="m3185.82 885.47c7.95-.001 14.39-6.378 14.39-14.235s-6.44-14.234-14.39-14.234-14.38 6.377-14.38 14.234 6.43 14.235 14.38 14.235z"/><path d="m3169.95 867.886v7.681c0 2.761-2.24 5-5 5h-5.88c-2.76 0-5-2.239-5-5v-7.681c0-2.762 2.24-5 5-5h5.88c2.76 0 5 2.238 5 5z"/><path d="m3219.56 867.394v7.682c0 2.761-2.24 5-5 5h-5.88c-2.76 0-5-2.239-5-5v-7.682c0-2.761 2.24-5 5-5h5.88c2.76 0 5 2.239 5 5z"/><path d="m3227.5 1028v-177.999h-129v177.999z"/><path d="m2694 699.501v-116c0-2.762 2.24-5 5-5h144c2.76 0 5 2.238 5 5v111c0 2.761-2.24 5-5 5h-110.5"/><path d="m2741.5 653.501v-27c0-2.762 2.24-5 5-5h49.5c2.76 0 5 2.238 5 5v27c0 2.761-2.24 5-5 5h-49.5c-2.76 0-5-2.239-5-5z"/><path d="m2746.5 621.001v-12.5c0-2.762 2.24-5 5-5h11.5c2.76 0 5 2.238 5 5v12.5"/><path d="m2775.5 621.001v-12.5c0-2.762 2.24-5 5-5h11.5c2.76 0 5 2.238 5 5v12.5"/><path d="m2768 658.501v12.5c0 2.761-2.24 5-5 5h-11.5c-2.76 0-5-2.239-5-5v-12.5"/><path d="m2797 658.501v12.5c0 2.761-2.24 5-5 5h-11.5c-2.76 0-5-2.239-5-5v-12.5"/><circle cx="3168.5" cy="291.501" r="15.5"/><path d="m3097.5 299.501v37.5h130v-92.5l-130 1.5v12"/><path d="m3159.5 279.001v-9.5c0-2.762 2.24-5 5-5h8c2.76 0 5 2.238 5 5v9.5"/><path d="m3181.5 283.501h9.5c2.76 0 5 2.238 5 5v8c0 2.761-2.24 5-5 5h-9.5"/><path d="m3177.5 304.501v9.5c0 2.761-2.24 5-5 5h-8c-2.76 0-5-2.239-5-5v-9.5"/><path d="m3155.5 301.501h-9.5c-2.76 0-5-2.239-5-5v-8c0-2.762 2.24-5 5-5h9.5"/><path d="m343.5 124.501v-122.00045h-109v122.00045z"/><path d="m305.5 22.0005h-35.5v61.5h35.5z"/><path d="m321.5 28.5005h-15.5v19.5h15.5z"/><path d="m269 28.5005h-15.5v19.5h15.5z"/><path d="m322 56.5005h-15.5v19.5h15.5z"/><path d="m269.5 56.5005h-15.5v19.5h15.5z"/><path d="m305.5 167.501h-35.5v61.5h35.5z"/><path d="m321.5 174.001h-15.5v19.5h15.5z"/><path d="m269 174.001h-15.5v19.5h15.5z"/><path d="m322 202.001h-15.5v19.5h15.5z"/><path d="m269.5 202.001h-15.5v19.5h15.5z"/><path d="m343.5 123.501v125"/><path d="m341.5 911.501v-122h-109v122z"/><path d="m303.5 809.001h-35.5v61.5h35.5z"/><path d="m319.5 815.501h-15.5v19.5h15.5z"/><path d="m267 815.501h-15.5v19.5h15.5z"/><path d="m320 843.501h-15.5v19.5h15.5z"/><path d="m267.5 843.501h-15.5v19.5h15.5z"/><path d="m303.5 954.501h-35.5v61.499h35.5z"/><path d="m319.5 961.001h-15.5v19.5h15.5z"/><path d="m267 961.001h-15.5v19.5h15.5z"/><path d="m320 989.001h-15.5v19.499h15.5z"/><path d="m267.5 989.001h-15.5v19.499h15.5z"/><path d="m341.5 910.501v124.999"/><path d="m465.5 119.501h-48v87h48z"/><path d="m414.5 131.501h-10v22h10z"/><path d="m414.5 171.501h-10v22h10z"/><path d="m464.5 827.501h-48v87h48z"/><path d="m413.5 839.501h-10v22h10z"/><path d="m413.5 879.501h-10v22h10z"/><path d="m1691.5 1028.5v-47.999h-87v47.999z"/><path d="m1679.5 977.501v-10h-22v10z"/><path d="m1639.5 977.501v-10h-22v10z"/><path d="m1605.5 155.501v48h87v-48z"/><path d="m1617.5 206.501v10h22v-10z"/><path d="m1657.5 206.501v10h22v-10z"/><path d="m689.5 314.501v400c0 2.761 2.239 5 5 5h65.5m43 0h294.5c2.76 0 5-2.239 5-5v-51.5c0-2.762 2.24-5 5-5h34.5c2.76 0 5 2.238 5 5v51.5c0 2.761 2.24 5 5 5h397.5c2.76 0 5-2.239 5-5v-34c0-2.762 2.24-5 5-5h114c2.76 0 5 2.238 5 5v34c0 2.761 2.24 5 5 5h127.5m40 0h77m44 0h101c2.76 0 5-2.239 5-5v-105.5c0-2.762 2.24-5 5-5h36c2.76 0 5 2.238 5 5v105.5c0 2.761 2.24 5 5 5h301m45 0h68.5m57.5 0h20c2.76 0 5-2.239 5-5v-91m0-39.5v-202m0-38v-23.5c0-2.762-2.24-5-5-5h-95.5-50.5m-45 0h-221m-38 0h-42c-2.76 0-5 2.238-5 5v56.5c0 2.761-2.24 5-5 5h-41.5c-2.76 0-5-2.239-5-5v-56.5c0-2.762-2.24-5-5-5h-384c-2.76 0-5 2.238-5 5v29c0 2.761-2.24 5-5 5h-114c-2.76 0-5-2.239-5-5v-29c0-2.762-2.24-5-5-5h-154.5m-73.5 0h-26m-36.5 0h-107c-2.76 0-5 2.238-5 5v107c0 2.761-2.24 5-5 5h-34.5c-2.76 0-5-2.239-5-5v-107.017c0-2.755-2.23-4.991-4.98-5l-294.52-.983" stroke-linecap="round"/><path d="m2848.5 340.501h-154m0 249v-132.38"/><path d="m2737 372.001c5.42 0 10.41 3.644 14.07 9.716 3.65 6.063 5.93 14.47 5.93 23.784 0 9.313-2.28 17.72-5.93 23.783-3.66 6.072-8.65 9.717-14.07 9.717s-10.41-3.645-14.07-9.717c-3.65-6.063-5.93-14.47-5.93-23.783 0-9.314 2.28-17.721 5.93-23.784 3.66-6.072 8.65-9.716 14.07-9.716z"/><path d="m2801 372.001c5.42 0 10.41 3.644 14.07 9.716 3.65 6.063 5.93 14.47 5.93 23.784 0 9.313-2.28 17.72-5.93 23.783-3.66 6.072-8.65 9.717-14.07 9.717s-10.41-3.645-14.07-9.717c-3.65-6.063-5.93-14.47-5.93-23.783 0-9.314 2.28-17.721 5.93-23.784 3.66-6.072 8.65-9.716 14.07-9.716z"/><circle cx="2754" cy="569.001" r="8"/><path d="m.5 1035v-1034.499451l3233 3.500001v1030.99945z"/></g></svg>